<svg width="80" height="48" viewBox="0 0 80 48" fill="none" xmlns="http://www.w3.org/2000/svg">
  <!-- Left circle (brand navy ring) -->
  <path d="M28 10C18.0589 10 10 18.0589 10 28C10 37.9411 18.0589 46 28 46C37.9411 46 46 37.9411 46 28C46 18.0589 37.9411 10 28 10ZM28 42C21.3726 42 16 36.6274 16 30C16 23.3726 21.3726 18 28 18C34.6274 18 40 23.3726 40 30C40 36.6274 34.6274 42 28 42Z" fill="#0A0C2A"/>
  
  <!-- Right circle (brand teal) -->
  <circle cx="56" cy="28" r="16" fill="#7AB8BD"/>
  
  <!-- Overlapping section (brand yellow) -->
  <path d="M28 18C21.3726 18 16 23.3726 16 30C16 36.6274 21.3726 42 28 42C31.3137 42 34.3137 40.8579 36.6274 39.1421C34.3137 40.8579 31.3137 42 28 42C21.3726 42 16 36.6274 16 30C16 23.3726 21.3726 18 28 18Z" fill="#F1D632"/>
</svg> 